<svg width="140" height="140" viewBox="0 0 140 140" fill="none" xmlns="http://www.w3.org/2000/svg">
  <defs>
    <linearGradient id="logoGradient" x1="0" y1="0" x2="1" y2="1">
      <stop offset="0%" stop-color="#F59E0B"/>
      <stop offset="48%" stop-color="#FB923C"/>
      <stop offset="100%" stop-color="#F97316"/>
    </linearGradient>
    <radialGradient id="logoGlow" cx="0.5" cy="0.5" r="0.6">
      <stop offset="0%" stop-color="#ffffff" stop-opacity="0.42"/>
      <stop offset="100%" stop-color="#ffffff" stop-opacity="0"/>
    </radialGradient>
  </defs>
  <circle cx="70" cy="70" r="56" fill="url(#logoGradient)"/>
  <path d="M28 70C28 41.49 52.49 17 81 17c23.8 0 43.8 16.9 49.4 39.6" stroke="#FFFFFF" stroke-width="10" stroke-linecap="round" stroke-linejoin="round" opacity="0.22"/>
  <path d="M40 88C46 104 61 114 79.5 114C102.7 114 122 94.7 122 71.5C122 48.3 102.7 29 79.5 29C64.3 29 51.4 37.3 44 50" stroke="#FFFFFF" stroke-width="10" stroke-linecap="round" stroke-linejoin="round" opacity="0.22"/>
  <path d="M47 48H60C70.5 48 78 55.5 78 66C78 75.8 71.5 82.5 60.5 82.5H47V48Z" fill="white"/>
  <path d="M58 52V86" stroke="#F97316" stroke-width="10" stroke-linecap="round"/>
  <path d="M57 54C70 54 80 63 80 74.5C80 85.9 70 94.5 57 94.5" stroke="white" stroke-width="10" stroke-linecap="round" stroke-linejoin="round"/>
  <circle cx="70" cy="55" r="9" fill="white" opacity="0.35"/>
  <circle cx="96" cy="42" r="7" fill="white" opacity="0.18"/>
  <circle cx="35" cy="35" r="5" fill="white" opacity="0.18"/>
  <circle cx="50" cy="100" r="6" fill="white" opacity="0.18"/>
  <circle cx="80" cy="80" r="43" fill="url(#logoGlow)"/>
</svg>
